<svg width="827" height="399" viewBox="0 0 827 399" fill="none" xmlns="http://www.w3.org/2000/svg">
<path d="M216.66 0.269531H243.027C314.902 0.269531 357.773 24.5859 371.641 73.2188C376.328 89.2344 378.672 107.594 378.672 128.297V399H216.66V0.269531ZM0.449219 128.297C0.449219 85.1328 10.3125 53.4922 30.0391 33.375C51.7188 11.3047 87.0703 0.269531 136.094 0.269531H162.461V399H0.449219V128.297ZM645.273 0.269531H826.035V200.953L645.273 0.269531ZM453.965 118.043H452.207C452.207 77.8086 463.145 48.1211 485.02 28.9805C506.895 9.83984 540.586 0.269531 586.094 0.269531L826.035 291.48C826.035 330.152 815.586 357.789 794.688 374.391C774.375 390.602 741.172 398.707 695.078 398.707L453.965 118.043ZM453.086 197.145L627.109 399H453.086V197.145Z" fill="#5200FF"/>
</svg>
